<?xml version="1.0" encoding="utf-8"?>
<!-- Generator: Adobe Illustrator 21.1.0, SVG Export Plug-In . SVG Version: 6.00 Build 0)  -->
<svg version="1.1" id="Layer_1" xmlns="http://www.w3.org/2000/svg" xmlns:xlink="http://www.w3.org/1999/xlink" x="0px" y="0px"
	 viewBox="0 0 740 417" style="enable-background:new 0 0 740 417;" xml:space="preserve">
<style type="text/css">
	.st0{display:none;}
	.st1{display:inline;}
	.st2{fill:#FFFFFF;}
</style>
<g id="_x34_K_Ultra_HD_-_White" class="st0">
	<g class="st1">
		<path class="st2" d="M318.3,182.1v-61.5c-7.2,13-14.5,24.6-21.7,34.7c-7.2,10.1-13.7,18.8-20.2,26.8H318.3z M341.4,88.1v94h17.4
			l8.7,19.5h-26v31.8h-23.1v-31.8h-65.8v-19.5c13.7-15.9,26.8-31.8,38.3-49.2c11.6-16.6,20.2-31.8,26.8-45.5h23.9V88.1z"/>
		<polygon class="st2" points="453.5,88.1 405.1,150.3 400.7,156.8 400.7,156.8 400.7,88.1 376.1,88.1 376.1,234.2 400.7,234.2 
			400.7,162.6 400.7,162.6 405.1,169.1 455,234.2 487.5,234.2 424.6,157.5 483.2,88.1 		"/>
		<path class="st2" d="M196.8,297.8c0,21-10.1,31.8-29.6,31.8c-9.4,0-16.6-2.9-21-8c-5.1-5.1-7.2-13-7.2-23.1v-44.1h12.3v44.1
			c0,13.7,5.8,20.2,17.4,20.2c5.8,0,10.1-1.4,12.3-5.1c2.9-3.6,4.3-8,4.3-14.5v-44.8h11.6V297.8z"/>
		<polygon class="st2" points="211.3,254.4 211.3,328.9 252.5,328.9 252.5,318 223.6,318 223.6,254.4 		"/>
		<polygon class="st2" points="245.3,254.4 245.3,265.3 266.2,265.3 266.2,328.9 279.3,328.9 279.3,265.3 300.2,265.3 300.2,254.4 
					"/>
		<path class="st2" d="M343.6,275.4c0-3.6-1.4-5.8-3.6-8c-2.2-2.2-5.8-2.9-10.1-2.9h-10.1v23.9h9.4c3.6,0,7.2-1.4,9.4-3.6
			C342.9,282.6,343.6,279.7,343.6,275.4 M345.8,328.9l-8.7-21.7c-2.2-5.8-5.8-8.7-10.1-8.7h-5.8v30.4h-12.3v-74.5h23.9
			c8,0,13.7,1.4,18.1,5.1s6.5,8.7,6.5,14.5c0,5.1-1.4,9.4-4.3,13c-2.9,3.6-7.2,5.8-12.3,7.2l0,0c1.4,0.7,2.9,1.4,4.3,3.6
			c1.4,1.4,2.9,3.6,3.6,5.8l11.6,23.9h-14.5V328.9z"/>
		<path class="st2" d="M400.7,265.3L400.7,265.3c-0.7,2.2-0.7,3.6-1.4,5.1l-10.1,28.9h22.4l-10.1-28.9
			C401.5,270.3,401.5,268.1,400.7,265.3 M422.4,328.9l-6.5-18.8h-29.6l-6.5,18.8H366l28.2-74.5H408l28.2,74.5H422.4z"/>
		<polygon class="st2" points="511.3,254.4 511.3,285.5 476.6,285.5 476.6,254.4 464.4,254.4 464.4,328.9 476.6,328.9 476.6,296.3 
			511.3,296.3 511.3,328.9 523.6,328.9 523.6,254.4 		"/>
		<path class="st2" d="M588,290.6c0-8-2.2-14.5-7.2-18.8c-5.1-4.3-11.6-6.5-20.2-6.5h-10.1V318h10.1c8.7,0,15.2-2.2,20.2-7.2
			C585.1,305.7,588,299.2,588,290.6 M601,290.6c0,7.2-1.4,14.5-5.1,20.2c-3.6,5.8-8,10.1-14.5,13c-6.5,2.9-13,4.3-21,4.3h-22.4
			v-73.7h23.1c13,0,23.1,2.9,29.6,9.4C597.4,269.6,601,279,601,290.6"/>
	</g>
</g>
<g id="Enhanced_-_White">
	<g>
		<polygon class="st2" points="115,261 140.9,261 140.9,250.7 115,250.7 115,229.5 142.4,229.5 142.4,219.1 102.6,219.1 
			102.6,293.1 144.5,293.1 144.5,282.8 115,282.8 		"/>
		<path class="st2" d="M206.6,265.7c0,1.6,0,3.6,0,6.7s0,4.7,0,5.2l0,0l-2.6-4.1l-33.6-54.3h-15.5v74h11.9V245c0-1,0-3.1,0-6.2
			c0-2.1,0-3.6-0.5-5.7l0,0c0.5,2.1,1.6,3.6,2.6,5.2l34.1,54.8h15v-74h-11.4V265.7z"/>
		<polygon class="st2" points="276.4,250.2 241.7,250.2 241.7,219.1 229.3,219.1 229.3,293.1 241.7,293.1 241.7,261 276.4,261 
			276.4,293.1 288.8,293.1 288.8,219.1 276.4,219.1 		"/>
		<path class="st2" d="M327.6,219.1l-27.9,74h13.4l6.2-18.6h29.5l6.7,18.6H369l-27.4-74H327.6z M322.9,264.1l10.3-28.4
			c0.5-1.6,1-3.6,1-5.2l0,0c0,1.6,0.5,3.6,1,5.2l10.3,28.4H322.9z"/>
		<path class="st2" d="M431.5,265.7c0,1.6,0,3.6,0,6.7s0,4.7,0,5.2l0,0L429,274l-33.1-54.8h-15.5v74h11.9V245c0-1,0-3.1,0-6.2
			c0-2.1,0-3.6-0.5-5.7l0,0c0.5,2.1,1.6,3.6,2.6,5.2l34.1,54.8h15v-74h-11.9V265.7z"/>
		<path class="st2" d="M493.1,217.6c-6.7,0-14,1.6-19.7,5.2c-5.7,3.1-10.9,8.3-14,14c-3.1,6.2-5.2,13.4-5.2,20.7
			c0,6.7,1.6,13.4,4.1,19.1s7.2,9.8,12.4,12.9c5.7,3.1,12.4,4.7,18.6,4.7c4.1,0,7.8-0.5,11.4-1c3.1-0.5,6.7-1.6,9.3-3.1v-11.9
			c-5.7,3.6-12.4,5.2-19.1,5.2c-6.7,0.5-13.4-2.6-18.1-7.2c-4.7-5.2-7.2-12.4-6.7-19.7c0-5.2,1-10.3,3.1-15c2.1-4.1,5.2-7.8,9.3-9.8
			c4.1-2.6,8.8-3.6,13.4-3.6c6.2,0,12.4,1.6,17.6,4.7v-12.4c-2.6-1-5.7-2.1-8.3-2.1C499.8,218.1,496.7,217.6,493.1,217.6"/>
		<polygon class="st2" points="534.5,261 560.3,261 560.3,250.7 534.5,250.7 534.5,229.5 562.4,229.5 562.4,219.1 522,219.1 
			522,293.1 563.9,293.1 563.9,282.8 534.5,282.8 		"/>
		<path class="st2" d="M598.1,219.1h-22.8v74h22.2c7.2,0,14.5-1.6,21.2-4.7c5.7-3.1,10.9-7.8,14-13.4c3.6-6.2,5.2-12.9,5.2-20.2
			c0.5-9.8-3.1-19.7-9.8-26.9C619.3,221.7,608.4,218.1,598.1,219.1 M617.2,275.5c-5.7,5.2-12.9,7.8-20.2,7.2h-9.8v-53.3h10.3
			c7.2-0.5,14.5,2.1,20.2,6.7c5.2,5.2,7.8,11.9,7.2,19.1C625,263.1,622.4,270.3,617.2,275.5"/>
		<path class="st2" d="M145.6,124h-14c-9.8,16.5-15,25.3-15.5,25.9c0,0.5-1,2.1-1.6,3.6l0,0c-0.5-1.6-1.6-3.1-2.6-5.2L99,124H84
			l22.8,37.2l-24.8,37.2h14.5l15.5-26.9c0.5-1,1-1.6,1.6-2.1c0-0.5,0.5-1,0.5-2.1l0,0l0.5,2.1c0,0.5,0.5,1,0.5,2.1l15.5,26.9h15
			l-23.3-37.2L145.6,124z"/>
		<path class="st2" d="M196.8,192.2c4.7-3.6,7.2-9.8,7.2-15.5c0-4.7-1.6-8.8-4.7-12.4c-3.1-3.6-7.8-5.7-12.4-5.7l0,0
			c4.1-1,7.2-3.6,9.8-6.7s3.6-6.7,3.6-10.9c0-5.2-2.1-9.8-6.2-12.4c-5.2-3.1-10.9-5.2-17.1-4.7h-23.3v74.5h24.3
			C184.9,199,191.6,196.9,196.8,192.2 M166.2,134.3h7.8c3.6,0,6.7,0.5,9.8,2.6c2.1,1.6,3.6,4.1,3.1,6.7c0,3.1-1,6.2-3.6,8.3
			c-2.6,2.1-6.2,3.1-9.8,3.1h-7.8L166.2,134.3z M166.2,188.1v-23.3h9.3c4.1-0.5,8.3,0.5,11.4,3.1c2.6,2.1,4.1,5.2,3.6,8.3
			c0,3.6-1,6.7-3.6,8.8c-3.1,2.1-6.7,3.6-10.3,3.1H166.2z"/>
		<path class="st2" d="M264.5,194.8c5.7-3.1,9.8-7.8,12.4-13.4c3.1-6.2,4.7-13.4,4.7-20.7c0-6.7-1.6-13.4-4.1-19.7
			c-2.6-5.7-7.2-9.8-12.4-13.4c-5.7-3.1-11.9-5.2-18.1-4.7c-6.7,0-13.4,1.6-19.1,4.7c-5.7,3.1-9.8,7.8-12.4,14
			c-3.1,6.2-4.7,13.4-4.7,20.7c0,6.7,1.6,13.4,4.7,19.7c2.6,5.7,7.2,10.3,12.4,13.4c5.7,3.1,11.9,4.7,18.1,4.7
			C252.6,199.5,258.8,197.9,264.5,194.8 M226.7,175.2c-2.1-4.7-3.1-9.3-2.6-14.5c-0.5-7.2,2.1-14,6.2-19.7
			c4.1-5.2,10.3-8.3,16.5-7.8c6.2-0.5,12.4,2.6,16.5,7.2c3.6,6.2,5.7,13.4,5.2,21.2c0.5,7.2-1.6,14.5-6.2,20.2
			c-4.1,4.7-10.3,7.2-16.5,7.2c-4.1,0-7.8-1.6-11.4-3.6C230.9,182.9,228.3,179.3,226.7,175.2"/>
		<path class="st2" d="M313.6,169.5c0-0.5,0.5-1,0.5-2.1l0,0c0,0.5,0,1,0.5,2.1c0,0.5,0.5,1,0.5,2.1l15.5,26.9h15l-23.3-37.2
			l23.3-36.7h-14c-9.8,16.5-15,25.3-15.5,25.9c0,0.5-1,2.1-1.6,3.6l0,0c-0.5-2.1-1.6-3.6-2.6-5.7L298.6,124h-14.5l22.8,37.2
			l-24.8,37.2h15l15.5-26.9C313.1,171,313.1,170.5,313.6,169.5"/>
		<path class="st2" d="M388.6,194.8c5.7,3.1,11.9,4.7,18.1,4.7c6.7,0,12.9-1.6,19.1-4.7c5.7-3.1,9.8-7.8,12.4-13.4
			c3.1-6.2,4.7-13.4,4.1-20.7c0-6.7-1.6-13.4-4.1-19.7c-2.6-5.7-7.2-9.8-12.4-13.4c-5.7-3.1-11.9-4.7-18.1-4.7
			c-6.7,0-13.4,1.6-19.1,4.7c-5.7,3.1-9.8,7.8-12.4,14c-3.1,6.2-4.7,13.4-4.1,20.7c0,6.7,1.6,13.4,4.1,19.7
			C378.8,186.6,382.9,191.2,388.6,194.8 M390.7,141c4.1-5.2,10.3-8.3,16.5-7.8c6.2-0.5,12.4,2.6,16.5,7.2c4.7,6.2,6.7,13.4,5.7,21.2
			c0.5,7.2-1.6,14.5-6.2,20.2c-4.1,4.7-10.3,7.2-16.5,7.2c-4.1,0-8.3-1-11.4-3.6c-3.6-2.6-6.2-5.7-7.8-9.8
			c-2.1-4.7-3.1-9.3-2.6-14.5C384.5,154,386.5,147.3,390.7,141"/>
		<path class="st2" d="M503.4,171c0,1.6,0,3.6,0,6.7c0,3.1,0,4.7,0,5.2l0,0l-2.1-4.1L467.7,124h-15.5v74.5h11.9v-48.6
			c0-1,0-3.1,0-6.2c0-2.1,0-3.6,0-5.7l0,0c0.5,2.1,1.6,3.6,2.6,5.2l34.1,54.8h15v-74h-11.9V171H503.4z"/>
		<polygon class="st2" points="539.1,165.9 565,165.9 565,155.5 539.1,155.5 539.1,134.8 567,134.8 567,124 526.7,124 526.7,198.5 
			568.6,198.5 568.6,187.6 539.1,187.6 		"/>
		<path class="st2" d="M634.8,160.7l23.3-36.7h-14c-9.8,16.5-15,25.3-15.5,25.9c0,0.5-1,2.1-1.6,3.6l0,0c-0.5-2.1-1.6-3.6-2.6-5.7
			L611,123.5h-15l22.8,37.2l-24.8,37.2h15l15.5-26.9c0.5-0.5,0.5-1,1-1.6l0.5-2.1l0,0l0.5,2.1c0,0.5,0.5,1,1,2.1l15.5,26.9h15
			L634.8,160.7z"/>
	</g>
</g>
<g id="HDR_-_White" class="st0">
	<g class="st1">
		<path class="st2" d="M598,163.3c0-9.4-3.1-16.9-10-22.6c-6.9-5.6-16.3-8.2-28.2-8.2h-28.2v65.8h27.6c11.3,0,20.7-3.1,27.6-10
			C593.6,181.5,598,173.4,598,163.3 M602.3,312l-25.7-60.2c-6.9-16.3-16.9-24.5-29.5-24.5h-16.3V312h-35.1V103.8h68.4
			c21.9,0,39.5,5,51.4,15.1c12.5,10,18.2,23.8,18.2,41.4c0,14.4-4.4,27-12.5,37c-8.2,10-19.4,16.9-34.5,20.7v0.6
			c4.4,1.3,8.8,5,13.2,10c4.4,5,8.2,10.7,10.7,16.3l32.6,68.4h-40.8V312z"/>
		<polygon class="st2" points="231.1,103.8 231.1,191.6 132,191.6 132,103.8 96.9,103.8 96.9,312 132,312 132,221.7 231.1,221.7 
			231.1,312 266.8,312 266.8,103.8 		"/>
		<path class="st2" d="M438,206c0-23.2-6.9-41.4-20.1-53.9c-13.8-12.5-32.6-18.8-57.7-18.8h-28.8v148.6h28.8
			c24.5,0,43.9-6.9,57.7-20.1C431.8,248.6,438,229.8,438,206 M475.7,205.4c0,21.3-5,40.1-14.4,56.4s-22.6,28.8-40.1,37.6
			s-37.6,13.2-60.8,13.2h-64V103.8h65.8c37.6,0,66.5,8.8,85.3,25.7C466.3,147,475.7,172.1,475.7,205.4"/>
	</g>
</g>
</svg>
