<?xml version="1.0" encoding="utf-8"?>
<!-- Generator: Adobe Illustrator 19.2.1, SVG Export Plug-In . SVG Version: 6.00 Build 0)  -->
<svg version="1.1" id="Layer_1" xmlns="http://www.w3.org/2000/svg" xmlns:xlink="http://www.w3.org/1999/xlink" x="0px" y="0px"
	 viewBox="0 0 56 40" style="enable-background:new 0 0 56 40;" xml:space="preserve">
<style type="text/css">
	.st0{fill:#FFFFFF;}
</style>
<g>
	<path class="st0" d="M47.2,4.5c0.3,0.3,0.6,0.6,0.9,0.9c0.3,0.3,0.5,0.7,0.7,1.1c0.6,1.3,1.2,2.6,1.8,3.9c0.5,1.3,1.1,2.7,1.6,4
		c0.7,1.7,1.3,3.5,1.9,5.3c0.6,1.8,1.1,3.6,1.4,5.5c0.1,0.8,0.3,1.7,0.4,2.5c0.1,0.8,0.1,1.7,0.1,2.5c0,1.1-0.1,2.2-0.4,3.3
		c-0.2,1.1-0.6,2.1-1.2,3c-0.3,0.4-0.6,0.8-1,1.2c-0.4,0.4-0.8,0.8-1.3,1.1c-0.5,0.3-1,0.6-1.5,0.8C50,39.9,49.5,40,49,40
		c-0.6,0-1.2-0.3-1.9-0.8c-0.7-0.5-1.4-1.1-2.1-1.8c-0.7-0.7-1.3-1.4-2-2.2c-0.6-0.7-1.1-1.3-1.5-1.8c-0.4-0.5-0.8-1-1.3-1.6
		c-0.4-0.6-0.9-1-1.4-1.4l-0.7-0.5c-0.4-0.3-0.8-0.5-1.2-0.6c-0.4-0.1-0.8-0.2-1.3-0.3c-0.4-0.1-0.9-0.1-1.3-0.1c-0.4,0-0.9,0-1.3,0
		H28h-5.2c-0.4,0-0.8,0-1.3,0c-0.4,0-0.9,0-1.3,0.1c-0.4,0.1-0.8,0.2-1.3,0.3c-0.4,0.1-0.8,0.3-1.2,0.6l-0.7,0.5
		c-0.5,0.4-1,0.8-1.4,1.4c-0.4,0.6-0.9,1.1-1.3,1.5c-0.4,0.4-0.9,1-1.5,1.8c-0.6,0.7-1.2,1.5-1.9,2.2c-0.7,0.7-1.4,1.3-2.1,1.8
		C8.2,39.7,7.6,40,7,40c-0.5,0-1-0.1-1.6-0.3c-0.5-0.2-1-0.5-1.5-0.8c-0.5-0.3-0.9-0.7-1.3-1.1c-0.4-0.4-0.7-0.8-1-1.2
		c-0.6-1-1-2-1.2-3C0.1,32.4,0,31.3,0,30.2c0-0.9,0-1.7,0.1-2.5c0.1-0.8,0.2-1.7,0.4-2.5c0.1-0.9,0.4-1.8,0.6-2.9
		c0.3-1,0.6-2.1,1-3.2c0.4-1.1,0.8-2.3,1.2-3.4c0.4-1.2,0.9-2.3,1.3-3.4c0.4-1.1,0.9-2.1,1.3-3.1s0.9-1.9,1.3-2.7
		c0.2-0.4,0.4-0.7,0.7-1.1c0.3-0.3,0.6-0.6,0.9-0.9c0-0.2,0-0.5,0-0.7c0-0.2,0-0.4,0.1-0.6c0-0.2,0.1-0.4,0.2-0.6
		c0.1-0.2,0.3-0.3,0.5-0.5c0.2-0.1,0.5-0.3,1-0.4C11,1.5,11.5,1.3,12,1.2c0.5-0.2,1-0.3,1.5-0.4c0.5-0.1,0.8-0.2,1.1-0.3
		c0.7-0.2,1.4-0.3,2.1-0.3C17.4,0,18.1,0,18.8,0c0.3,0,0.6,0,0.9,0c0.3,0,0.6,0.1,0.9,0.2h0C21,0.5,21.4,0.8,21.8,1
		c0.4,0.3,0.8,0.5,1.2,0.7h9.9c0.4-0.2,0.8-0.5,1.1-0.7c0.3-0.2,0.6-0.4,0.9-0.5c0.3-0.2,0.6-0.3,1-0.4C36.3,0,36.8,0,37.2,0
		c0.7,0,1.4,0,2.1,0.1c0.7,0.1,1.4,0.2,2.1,0.3c0.3,0.1,0.6,0.1,1.1,0.3C43,0.8,43.5,1,44,1.2c0.5,0.2,1,0.3,1.4,0.5
		c0.4,0.2,0.8,0.3,1,0.4c0.5,0.3,0.7,0.7,0.8,1.1C47.2,3.5,47.2,4,47.2,4.5z M49.1,36.3c0.7-0.2,1.2-0.5,1.6-0.9
		c0.4-0.4,0.8-0.9,1-1.5c0.3-0.6,0.4-1.2,0.5-1.8c0.1-0.6,0.2-1.3,0.2-1.9c0-0.7,0-1.5-0.1-2.2c-0.1-0.7-0.2-1.5-0.3-2.2
		c-0.4-2-0.9-4-1.6-5.9c-0.7-1.9-1.4-3.8-2.2-5.7c-0.4-1-0.8-2.1-1.2-3.1c-0.4-1-0.9-2-1.4-3c-0.1-0.3-0.3-0.5-0.5-0.7
		c-0.2-0.2-0.4-0.3-0.6-0.5c-0.2-0.2-0.4-0.4-0.5-0.6c-0.1-0.2-0.2-0.5-0.2-0.9V4.9c-1-0.4-2.1-0.7-3.2-0.9s-2.1-0.3-3.2-0.3
		c-0.1,0-0.2,0-0.3,0s-0.2,0-0.3,0c-0.7,0.4-1.2,0.7-1.6,1c-0.4,0.2-0.7,0.4-1,0.5c-0.3,0.1-0.7,0.2-1,0.2c-0.4,0-0.9,0-1.7,0h-6.9
		c-0.7,0-1.3,0-1.7,0c-0.4,0-0.7-0.1-1-0.2c-0.3-0.1-0.6-0.3-1-0.5c-0.4-0.2-0.9-0.5-1.6-1c-0.1,0-0.2,0-0.3,0s-0.2,0-0.3,0
		c-1.1,0-2.2,0.1-3.2,0.3s-2.1,0.5-3.2,0.9c0,0.5,0,1-0.1,1.3c-0.1,0.3-0.4,0.6-0.8,0.9c-0.2,0.1-0.4,0.3-0.6,0.4
		c-0.2,0.2-0.3,0.4-0.4,0.6c-0.5,1-1,2-1.4,3c-0.4,1-0.8,2.1-1.2,3.1C7,16.1,6.2,18,5.5,19.9c-0.7,1.9-1.2,3.9-1.6,5.9
		c-0.1,0.7-0.3,1.5-0.3,2.2c-0.1,0.7-0.1,1.5-0.1,2.2c0,0.6,0,1.3,0.2,1.9c0.1,0.6,0.3,1.2,0.5,1.8c0.3,0.5,0.6,1,1,1.5
		c0.4,0.4,1,0.7,1.6,0.9c0.3-0.2,0.6-0.5,1.1-0.9c0.5-0.4,0.9-0.9,1.4-1.5s1-1.1,1.4-1.6c0.4-0.5,0.8-0.9,1-1.2
		c0.2-0.2,0.4-0.5,0.7-0.9c0.3-0.4,0.6-0.7,0.9-1.1s0.7-0.7,1-1c0.3-0.3,0.6-0.5,0.8-0.7c0.1-0.1,0.2-0.1,0.2-0.2
		c0.1-0.1,0.2-0.1,0.2-0.2c0.5-0.4,1-0.7,1.6-0.9c0.6-0.2,1.1-0.4,1.7-0.5c0.6-0.1,1.2-0.2,1.8-0.2c0.6,0,1.2,0,1.8,0H28h5.2
		c0.6,0,1.2,0,1.8,0c0.6,0,1.2,0.1,1.8,0.2c0.6,0.1,1.2,0.3,1.7,0.5c0.6,0.2,1.1,0.5,1.6,0.9c0.1,0.1,0.2,0.1,0.2,0.2
		c0.1,0.1,0.2,0.1,0.2,0.2c0.2,0.2,0.5,0.4,0.8,0.7c0.3,0.3,0.6,0.7,1,1s0.6,0.7,0.9,1.1c0.3,0.4,0.5,0.6,0.7,0.9
		c0.3,0.3,0.6,0.7,1.1,1.2c0.4,0.5,0.9,1,1.3,1.5c0.5,0.5,0.9,1,1.4,1.4C48.4,35.8,48.8,36.1,49.1,36.3z M28,9
		c0.5,0,0.9,0.2,1.2,0.5c0.3,0.4,0.5,0.8,0.5,1.3c0,0.5-0.2,0.9-0.5,1.3c-0.3,0.4-0.8,0.5-1.2,0.5c-0.5,0-0.9-0.2-1.2-0.5
		c-0.3-0.4-0.5-0.8-0.5-1.3c0-0.5,0.2-0.9,0.5-1.3C27.1,9.2,27.5,9,28,9z"/>
</g>
</svg>
