<?xml version="1.0" encoding="utf-8"?>
<!-- Generator: Adobe Illustrator 19.2.1, SVG Export Plug-In . SVG Version: 6.00 Build 0)  -->
<svg version="1.1" id="Layer_1" xmlns="http://www.w3.org/2000/svg" xmlns:xlink="http://www.w3.org/1999/xlink" x="0px" y="0px"
	 viewBox="0 0 42 46" style="enable-background:new 0 0 42 46;" xml:space="preserve">
<style type="text/css">
	.st0{fill:#FFFFFF;}
</style>
<g>
	<path class="st0" d="M21,0c1.9,0,3.8,0.3,5.6,0.8c1.8,0.5,3.5,1.2,5,2.1c1.6,0.9,3,2,4.3,3.3c1.3,1.3,2.4,2.7,3.3,4.3
		c0.9,1.6,1.6,3.3,2.1,5.1c0.5,1.8,0.8,3.7,0.8,5.6v19.5c0,0.7-0.1,1.4-0.4,2.1c-0.3,0.6-0.6,1.2-1.1,1.7c-0.5,0.5-1,0.9-1.7,1.1
		c-0.6,0.3-1.3,0.4-2.1,0.4h-5.2V24.8h5.2c0.6,0,1.2,0.1,1.8,0.3v-3.8c0-2.4-0.5-4.7-1.4-6.9c-0.9-2.1-2.2-4-3.8-5.6
		s-3.4-2.9-5.6-3.8C25.7,4,23.4,3.5,21,3.5S16.3,4,14.2,4.9c-2.1,0.9-4,2.2-5.6,3.8s-2.8,3.5-3.8,5.6c-0.9,2.1-1.4,4.4-1.4,6.9v3.8
		c0.6-0.2,1.1-0.3,1.8-0.3h5.2V46H5.2c-0.7,0-1.4-0.1-2.1-0.4c-0.6-0.3-1.2-0.7-1.7-1.1c-0.5-0.5-0.8-1-1.1-1.7
		C0.1,42.1,0,41.4,0,40.7V21.2c0-2,0.2-3.8,0.8-5.6c0.5-1.8,1.2-3.5,2.1-5.1c0.9-1.6,2-3,3.3-4.3c1.3-1.3,2.7-2.4,4.3-3.3
		c1.6-0.9,3.2-1.6,5-2.1C17.2,0.3,19.1,0,21,0z M5.2,28.3c-0.5,0-0.9,0.2-1.2,0.5c-0.3,0.4-0.5,0.8-0.5,1.2v10.6
		c0,0.5,0.2,0.9,0.5,1.2c0.3,0.4,0.8,0.5,1.2,0.5H7V28.3H5.2z M36.8,42.5c0.5,0,0.9-0.2,1.2-0.5c0.3-0.3,0.5-0.8,0.5-1.2V30.1
		c0-0.5-0.2-0.9-0.5-1.2c-0.3-0.3-0.8-0.5-1.2-0.5H35v14.2H36.8z"/>
</g>
</svg>
