<?xml version="1.0" encoding="utf-8"?>
<!-- Generator: Adobe Illustrator 19.2.1, SVG Export Plug-In . SVG Version: 6.00 Build 0)  -->
<svg version="1.1" id="Layer_1" xmlns="http://www.w3.org/2000/svg" xmlns:xlink="http://www.w3.org/1999/xlink" x="0px" y="0px"
	 viewBox="0 0 56 56" style="enable-background:new 0 0 56 56;" xml:space="preserve">
<style type="text/css">
	.st0{fill:#FFFFFF;}
</style>
<g>
	<path class="st0" d="M35.1,21c-1.5,0-2.8,0.3-4.1,0.8c-1.3,0.5-2.4,1.3-3.3,2.2c-0.9,0.9-1.7,2-2.2,3.3c-0.6,1.3-0.9,2.6-0.9,4v0.2
		c0,1.7-0.4,3.2-1.1,4.7c-0.8,1.5-1.8,2.7-3.2,3.7c1.6,0.8,3,1.9,4.2,3.2v7.6c-0.2-1.3-0.6-2.5-1.2-3.5c-0.6-1.1-1.4-2-2.3-2.8
		c-0.9-0.8-2-1.4-3.2-1.8c-1.2-0.4-2.4-0.6-3.7-0.6c-1.5,0-2.8,0.3-4.1,0.8c-1.3,0.6-2.4,1.3-3.3,2.3c-0.9,0.9-1.7,2.1-2.2,3.3
		c-0.6,1.3-0.8,2.6-0.8,4.1H0c0-1.3,0.2-2.6,0.6-3.9c0.4-1.2,0.9-2.4,1.6-3.5C2.8,44,3.6,43,4.6,42.1c1-0.9,2-1.6,3.2-2.2
		c-1.4-1-2.4-2.2-3.2-3.7c-0.8-1.5-1.1-3.1-1.1-4.7c0-1.4,0.3-2.8,0.8-4.1c0.6-1.3,1.3-2.4,2.2-3.3c0.9-1,2.1-1.7,3.3-2.3
		c1.3-0.6,2.7-0.8,4.1-0.8c1.7,0,3.3,0.4,4.8,1.1c1.5,0.8,2.7,1.8,3.7,3.2c0.7-1.4,1.6-2.6,2.6-3.7c1.1-1.1,2.3-2,3.7-2.7
		c-1.4-1-2.4-2.2-3.2-3.7c-0.8-1.5-1.1-3.1-1.1-4.7c0-1.4,0.3-2.8,0.8-4.1C26,5.1,26.7,4,27.7,3.1c0.9-0.9,2.1-1.7,3.3-2.3
		C32.3,0.3,33.7,0,35.1,0c1.5,0,2.8,0.3,4.1,0.8c1.3,0.6,2.4,1.3,3.4,2.3c0.9,0.9,1.7,2.1,2.2,3.3c0.6,1.3,0.8,2.6,0.8,4.1
		c0,1.7-0.4,3.3-1.1,4.7c-0.8,1.5-1.8,2.7-3.2,3.7c1.2,0.6,2.3,1.3,3.2,2.2c1,0.9,1.8,1.9,2.5,3c0.7,1.1,1.2,2.3,1.6,3.5
		c0.4,1.2,0.6,2.5,0.6,3.9h-3.5c0-1.4-0.3-2.8-0.8-4.1c-0.6-1.3-1.3-2.4-2.2-3.3c-0.9-1-2.1-1.7-3.4-2.3C37.9,21.2,36.6,21,35.1,21z
		 M14.1,38.5c1,0,1.9-0.2,2.7-0.6c0.8-0.4,1.6-0.9,2.2-1.5s1.1-1.4,1.5-2.2c0.4-0.8,0.6-1.8,0.6-2.7c0-0.9-0.2-1.8-0.6-2.7
		c-0.4-0.9-0.9-1.6-1.5-2.2c-0.6-0.6-1.4-1.1-2.2-1.5c-0.8-0.4-1.8-0.6-2.7-0.6c-1,0-1.9,0.2-2.7,0.6c-0.9,0.4-1.6,0.9-2.2,1.5
		c-0.6,0.6-1.1,1.4-1.5,2.2C7.2,29.6,7,30.5,7,31.5c0,1,0.2,1.9,0.6,2.7c0.4,0.8,0.9,1.6,1.5,2.2c0.6,0.6,1.4,1.1,2.2,1.5
		C12.2,38.3,13.1,38.5,14.1,38.5z M51,37.1c0.1,0,0.2,0.1,0.3,0.1s0.2,0.1,0.3,0.2c0.3,0.2,0.4,0.4,0.5,0.7c0.1,0.2,0.2,0.5,0.3,0.8
		c0.1,0.4,0.3,0.8,0.5,1.2c0.2,0.4,0.4,0.8,0.6,1.2c0.5,1.1,0.9,2.2,1.4,3.4c0.5,1.2,0.8,2.3,1,3.5c0.1,0.4,0.1,0.8,0.2,1.2
		c0,0.4,0.1,0.8,0.1,1.2c0,0.6-0.1,1.2-0.2,1.7c-0.1,0.6-0.4,1.1-0.7,1.6c-0.2,0.3-0.4,0.5-0.6,0.8c-0.2,0.2-0.5,0.5-0.8,0.7
		c-0.3,0.2-0.6,0.3-0.9,0.5c-0.3,0.1-0.6,0.2-1,0.2c-0.6,0-1.1-0.2-1.7-0.7c-0.6-0.5-1.1-1-1.6-1.6c-0.5-0.6-1-1.1-1.4-1.7
		c-0.4-0.5-0.8-0.8-1.1-0.9C45.7,51,45.5,51,45.2,51s-0.5,0-0.7,0h-4.9c-0.2,0-0.5,0-0.7,0c-0.3,0-0.5,0-0.7,0.1
		c-0.2,0.1-0.4,0.2-0.7,0.5c-0.3,0.3-0.6,0.6-0.9,0.9c-0.3,0.4-0.6,0.7-1,1.1c-0.3,0.4-0.7,0.8-1.1,1.1c-0.4,0.3-0.7,0.6-1.1,0.9
		C33,55.9,32.6,56,32.2,56c-0.3,0-0.6-0.1-1-0.2c-0.3-0.1-0.6-0.3-1-0.5s-0.6-0.4-0.8-0.7c-0.3-0.2-0.5-0.5-0.6-0.8
		c-0.3-0.5-0.6-1.1-0.7-1.7c-0.1-0.6-0.2-1.2-0.2-1.9c0-0.8,0.1-1.8,0.3-2.9c0.2-1.1,0.5-2.2,0.9-3.4c0.3-1.1,0.7-2.3,1.1-3.3
		c0.4-1.1,0.8-2,1.1-2.7c0-0.6,0.1-1.1,0.3-1.5c0.2-0.4,0.7-0.7,1.4-0.7c0.4,0,0.8-0.1,1.1-0.3c0.3-0.1,0.7-0.3,1-0.3
		c0.4-0.1,0.8-0.2,1.2-0.2c0.4,0,0.8-0.1,1.2-0.1c0.3,0,0.5,0,0.7,0c0.2,0,0.4,0.1,0.6,0.1c0.2,0.1,0.4,0.2,0.5,0.3
		c0.2,0.1,0.4,0.2,0.6,0.4h3.9c0.2-0.1,0.4-0.3,0.6-0.4c0.1-0.1,0.3-0.2,0.4-0.3c0.1-0.1,0.3-0.1,0.5-0.2c0.2,0,0.4-0.1,0.7-0.1
		c0.3,0,0.8,0,1.3,0.1c0.5,0.1,1,0.2,1.5,0.4c0.5,0.2,0.9,0.4,1.4,0.6C50.7,36.4,50.9,36.7,51,37.1z M28.1,10.5c0,1,0.2,1.9,0.6,2.7
		c0.4,0.8,0.9,1.6,1.5,2.2s1.4,1.1,2.2,1.5c0.9,0.4,1.8,0.6,2.7,0.6c1,0,1.9-0.2,2.7-0.6c0.8-0.4,1.6-0.9,2.2-1.5s1.1-1.4,1.5-2.2
		c0.4-0.8,0.6-1.8,0.6-2.7c0-0.9-0.2-1.8-0.6-2.7c-0.4-0.9-0.9-1.6-1.5-2.2s-1.4-1.1-2.2-1.5c-0.8-0.4-1.8-0.6-2.7-0.6
		c-1,0-1.9,0.2-2.7,0.5c-0.9,0.4-1.6,0.9-2.2,1.5c-0.6,0.6-1.1,1.4-1.5,2.2C28.3,8.6,28.1,9.5,28.1,10.5z M52,52.3
		c0.2-0.2,0.3-0.5,0.4-0.8c0.1-0.3,0.1-0.6,0.1-0.9c0-0.7-0.1-1.6-0.4-2.5c-0.2-0.9-0.5-1.9-0.9-2.8c-0.3-1-0.7-1.9-1.1-2.8
		c-0.4-0.9-0.8-1.7-1.1-2.4c-0.4-0.1-0.7-0.2-1-0.5c-0.3-0.3-0.4-0.6-0.5-0.9c-0.4-0.1-0.9-0.2-1.4-0.2c-0.1,0.1-0.2,0.2-0.4,0.3
		c-0.2,0.1-0.3,0.2-0.5,0.3c-0.2,0.1-0.4,0.1-0.6,0.2c-0.2,0-0.4,0.1-0.5,0.1h-4.9v0c-0.4,0-0.7-0.2-0.9-0.3
		c-0.2-0.2-0.5-0.4-0.8-0.5c-0.4,0-0.8,0-1,0c-0.2,0-0.4,0.1-0.6,0.1c-0.2,0-0.3,0.1-0.5,0.2c-0.2,0.1-0.4,0.2-0.8,0.3
		c-0.1,0.2-0.1,0.3-0.2,0.5c-0.1,0.1-0.2,0.3-0.2,0.4c-0.2,0.3-0.3,0.8-0.6,1.3c-0.2,0.5-0.4,1.1-0.6,1.8c-0.2,0.6-0.4,1.3-0.6,2
		c-0.2,0.7-0.4,1.4-0.5,2c-0.2,0.7-0.3,1.3-0.4,1.8c-0.1,0.6-0.2,1-0.2,1.4c0,0.1,0,0.3,0,0.5c0,0.2,0.1,0.4,0.1,0.5
		c0,0.2,0.1,0.4,0.2,0.5c0.1,0.2,0.2,0.3,0.3,0.4c0.7-0.7,1.3-1.4,1.8-1.9c0.5-0.6,0.9-1.1,1.4-1.5c0.5-0.4,1.1-0.8,1.7-1
		c0.7-0.2,1.6-0.4,2.7-0.4h4.9c1.1,0,2,0.1,2.7,0.4c0.7,0.2,1.2,0.6,1.7,1c0.5,0.4,0.9,0.9,1.4,1.5C50.7,51,51.3,51.6,52,52.3z
		 M41.1,42c0.3,0,0.5,0.1,0.6,0.3c0.2,0.2,0.2,0.4,0.2,0.6c0,0.2-0.1,0.4-0.3,0.6c-0.2,0.2-0.4,0.3-0.6,0.3c-0.2,0-0.4-0.1-0.6-0.3
		c-0.2-0.2-0.3-0.4-0.3-0.6c0-0.2,0.1-0.4,0.2-0.6C40.6,42.1,40.8,42,41.1,42z"/>
</g>
</svg>
