<?xml version="1.0" encoding="utf-8"?>
<!-- Generator: Adobe Illustrator 19.2.1, SVG Export Plug-In . SVG Version: 6.00 Build 0)  -->
<svg version="1.1" id="Layer_2" xmlns="http://www.w3.org/2000/svg" xmlns:xlink="http://www.w3.org/1999/xlink" x="0px" y="0px"
	 viewBox="0 0 167 34" style="enable-background:new 0 0 167 34;" xml:space="preserve">
<style type="text/css">
	.st0{fill:#FFFFFF;}
</style>
<g>
	<path class="st0" d="M0,0h33.4c0,11.3,0,22.7,0,34H0V0 M2.5,5.3C4,12.2,5.3,19.2,6.7,26.1c0.2,0.8,0.1,1.9,0.9,2.5
		c1.5,0.2,3,0.2,4.4,0.1c0.8,0,1-0.9,1.1-1.5c1-5,2-9.9,3.1-14.7c0.1-0.5,0.2-0.9,0.5-1.4c1.2,5.3,2.3,10.7,3.4,16
		c0.1,0.6,0.2,1.2,0.8,1.6c1.6,0.2,3.2,0.2,4.8,0c0.6-0.3,0.6-1,0.8-1.6c1.5-7.3,2.8-14.5,4.4-21.6c-1.4,0-2.8,0-4.2,0
		c-1.1,6.2-2,12.6-3.3,18.8c-1.4-5.3-2.3-10.8-3.5-16.1c-0.2-0.9-0.1-2.3-1.1-2.7c-1.2-0.1-2.5-0.1-3.7,0c-0.7,0.1-0.9,0.9-1,1.5
		c-1.1,5.3-2.3,10.7-3.4,16c-0.1,0.5-0.2,1-0.5,1.5C9.1,17.9,8,11.7,7,5.3C5.5,5.3,4,5.3,2.5,5.3z"/>
	<path class="st0" d="M66.6,0H100c0,11.3,0,22.7,0,34H66.6C66.6,22.7,66.6,11.3,66.6,0 M74.1,5.3c0,7.8,0,15.5,0,23.3
		c1.6,0,3.1,0,4.7,0c0-3.1,0-6.1,0-9.1c2.5,0,5,0,7.5,0c0.9-0.1,2,0.6,1.9,1.6c0.1,2.5,0.3,5,0.5,7.6c1.5,0,3,0,4.4,0
		c-0.5-2.8,0.1-5.8-0.7-8.6c-0.5-1.5-2-1.8-3.3-2.2c0.9-0.5,2.2-0.6,2.8-1.5c1-1.2,1-2.9,1-4.4c0-1.8,0-3.7-1.1-5.2
		c-0.9-1.2-2.6-1.5-4-1.5C83.3,5.3,78.7,5.3,74.1,5.3z"/>
	<path class="st0" d="M133.1,0H167v34h-33.9C133.1,22.7,133.1,11.3,133.1,0 M140.8,5.3c0,7.8,0,15.5,0,23.3c3.9,0,7.8,0,11.7,0
		c2.4,0,5.2-0.5,6.6-2.6c1.7-2.7,1.5-6,1.7-9c-0.3-3.1,0-6.3-1.7-9.1c-1.4-2-3.9-2.5-6.1-2.6C148.8,5.3,144.7,5.3,140.8,5.3z"/>
	<path class="st0" d="M41.9,5.1c5.3,0,10.8,0,16.1,0c0,1.4,0,2.8,0,4.2c-1.9,0-3.9,0-5.7,0c0,5.1,0,10.3,0,15.4c1.9,0,3.9,0,5.7,0
		c0,1.4,0,2.8,0,4.2c-5.3,0-10.8,0-16.1,0c0-1.4,0-2.8,0-4.2c1.9,0,3.9,0,5.7,0c0-5.1,0-10.3,0-15.4c-1.9,0-3.9,0-5.7,0
		C41.9,7.9,41.9,6.5,41.9,5.1z"/>
	<path class="st0" d="M105.9,5.1c6.6,0,13.2,0,19.8,0c0,2.6,0,5.2,0,7.7c-1.5,0-2.8,0-4.3,0c0-1.2,0-2.4,0-3.5c-2.6,0-5.1,0-7.7,0
		c0,1.8,0,3.5,0,5.3c2,0,4.2,0,6.2,0c0,1.4,0,2.6,0,4c-2,0-4.2,0-6.2,0c0,2,0,4.1,0,6.1c2.6,0,5.3,0,8,0c0-1.4,0-2.7,0-4.1
		c1.5,0,3,0,4.3,0c0,2.7,0,5.6,0,8.3c-6.7,0-13.4,0-20.1,0c0-1.4,0-2.8,0-4.2c1,0,2.2,0,3.2,0c0-5.1,0-10.3,0-15.4c-1,0-2.2,0-3.2,0
		C105.9,7.9,105.9,6.5,105.9,5.1z"/>
	<path class="st0" d="M78.7,9.2c3,0,5.9-0.1,8.9,0.1c1.1,0.8,0.9,2.4,0.9,3.6c-0.1,1.1-0.1,2.9-1.6,2.9c-2.7,0.1-5.6,0-8.3,0.1
		C78.7,13.7,78.7,11.4,78.7,9.2z"/>
	<path class="st0" d="M145.3,9.2c2.5,0,5,0,7.5,0c1.1,0,2.4,0.6,2.7,1.7c0.8,2.3,0.5,4.6,0.6,7c-0.1,1.8,0.1,3.9-0.7,5.6
		c-0.6,1.1-1.9,1.5-3.1,1.4c-2.4,0-4.8,0-7.2,0C145.3,19.6,145.3,14.4,145.3,9.2z"/>
</g>
</svg>
