<?xml version="1.0" encoding="utf-8"?>
<!-- Generator: Adobe Illustrator 19.2.1, SVG Export Plug-In . SVG Version: 6.00 Build 0)  -->
<svg version="1.1" id="Layer_2" xmlns="http://www.w3.org/2000/svg" xmlns:xlink="http://www.w3.org/1999/xlink" x="0px" y="0px"
	 viewBox="0 0 170 27" style="enable-background:new 0 0 170 27;" xml:space="preserve">
<style type="text/css">
	.st0{fill:#FFFFFF;}
</style>
<g>
	<path class="st0" d="M10.7,21.1c-0.8-0.5-0.8-1.5-0.8-2.3c0-2.8,0-5.7,0-8.5c1.3,0,2.7,0,4.1,0c0-1.4,0-2.9,0-4.3
		c-1.3,0-2.8,0-4.1,0c0-2,0-4,0-6C7.7,0,5.5,0,3.3,0c0,2,0,4,0,6C2.2,6,1.1,6,0,6c0,1.4,0,2.9,0,4.3c1.2,0,2.2,0,3.4,0
		c0,3.4,0,6.9,0,10.4c0.1,1.8,0.5,4.1,2.3,5c2.6,1.2,5.6,0.7,8.3,0.6c0-1.6,0-3.3,0-5C12.9,21.3,11.6,21.6,10.7,21.1z"/>
	<path class="st0" d="M69.3,5.4c-2.4,0-5,1.2-6.3,3.3c0.1-2.9,0-5.8,0-8.7c-2.1,0-4.4,0-6.5,0c0,5.9,0,11.7-0.1,17.7
		c0,0.3-0.1,0.5-0.3,0.6c-2.1-0.3-4.1-0.1-6.2-0.1c-0.3,1-0.6,2.2-1.5,2.8c-1.3,0.9-3.5,0.9-4.7-0.3c-1.2-1.1-1.5-2.9-1.5-4.4
		c0-1.4,0.2-3.1,1.1-4.2c1.3-1.8,4.2-2,5.6-0.5c0.4,0.5,0.6,1.2,0.8,1.8c2.1,0,4.3,0,6.4,0c-0.2-1.6-0.7-3.2-1.8-4.5
		c-1.5-2-3.9-3-6.4-3.3c-1.9-0.4-4-0.4-6,0.5c-1.9,0.7-3.5,2.1-4.6,3.8c-1.6,2.5-2,5.7-1.6,8.7c0.4,3.1,2.4,5.8,5.2,7.1
		c4.3,2.1,9.8,1.4,13.2-2.1c0.2-0.3,0.3-0.6,0.5-0.8c1-1,1-2.4,1.6-3.6c0.1,2.3,0,4.8,0,7.1c2.1,0,4.4,0,6.5,0c0-3.5,0-6.9,0-10.5
		c0-1.3,0.2-2.6,1-3.6c1.1-1.4,3.2-1.5,4.7-0.7c1.2,0.7,1.2,2.3,1.3,3.5c0,3.8,0,7.5,0,11.3c2.1,0,4.4,0,6.5,0c0-4.6,0-9.2,0-13.8
		c0-2-0.4-4.1-1.9-5.4C73.2,5.8,71.2,5.4,69.3,5.4z"/>
	<path class="st0" d="M30.9,7.3c-4.3-3-10.8-2.4-14.5,1.4c-1.9,1.9-2.9,4.6-2.8,7.2c-0.1,2.5,0.6,5.1,2.2,7c1.6,2.1,4.1,3.2,6.7,3.6
		c2.9,0.4,6,0.1,8.5-1.4c1.9-1.2,3.2-3.1,3.8-5.1c-2.1,0-4.1,0-6.2,0c-1.3,2.6-5.2,3-7.2,0.9c-0.8-0.9-1.2-2.1-1.3-3.2
		c4.9,0,9.9,0,14.9,0C35.3,13.9,34.2,9.7,30.9,7.3z M20.2,14c0.3-1.5,1.2-3.1,2.6-3.7c1.6-0.7,3.8-0.3,4.7,1.2
		c0.5,0.7,0.8,1.6,0.9,2.4C25.8,14,23,14,20.2,14z"/>
	<path class="st0" d="M126.3,8.4c-2.7-3.7-8.7-3.7-11.7-0.4c-2,2.2-2.8,5.1-2.7,7.9c0,3.1,0.8,6.2,2.9,8.6c1.7,1.8,4.2,2.6,6.6,2.4
		c2.1,0,4-1.2,5.2-2.9c0,0.8,0,1.5,0,2.3c2.1,0,4.2,0,6.3,0c0-8.8,0-17.7,0-26.4c-2.1,0-4.4,0-6.5,0C126.3,2.7,126.3,5.5,126.3,8.4z
		 M125.4,20.5c-1.2,1.5-3.8,1.8-5.2,0.5c-1.1-0.9-1.4-2.3-1.6-3.6c-0.2-1.7-0.1-3.5,0.9-5c0.4-0.7,1.2-1.3,2.1-1.5
		c1.3-0.5,3,0,3.8,1.1c1,1.3,1.3,3,1.2,4.5C126.5,17.9,126.2,19.4,125.4,20.5z"/>
	<path class="st0" d="M91.7,5.8c-1.4-0.3-3-0.2-4.4,0.4C85.8,6.7,84.7,8,84,9.5c0-1.2,0-2.3,0-3.4c-2.1,0-4.3,0-6.4,0
		c0,6.8,0,13.5,0,20.2c2.1,0,4.4,0,6.5,0c0-3.3,0-6.6,0-9.9c0-1.6,0.7-3.2,2.1-4.2c1.6-1,3.6-0.8,5.4-0.4
		C91.7,9.9,91.7,7.8,91.7,5.8z"/>
	<path class="st0" d="M111,11.5c-0.1-1.4-0.6-2.9-1.7-3.9c-1.7-1.5-4.1-1.9-6.3-2.1c-2.9-0.1-5.9,0.1-8.3,1.7
		c-1.7,1.1-2.6,3.2-2.7,5.1c2.1,0,4.1,0,6.2,0c0.3-1,0.9-2,2-2.3c1.3-0.4,3-0.3,4,0.7c0.9,0.8,0.5,2.5-0.7,2.8
		c-3.1,0.8-6.5,0.5-9.5,2.1c-1.3,0.7-2.4,2.1-2.7,3.6C91,21,91.1,23,92.2,24.4c1,1.4,2.7,2.2,4.4,2.4c2.9,0.4,5.9-0.3,8-2.3
		c0.2,0.5,0,1.4,0.4,1.8c2.2,0.1,4.4,0,6.6,0c-0.4-1.1-0.7-2.2-0.7-3.3C110.9,19.2,111.1,15.3,111,11.5z M103.8,21.6
		c-1,1.3-2.9,1.4-4.3,1c-1.1-0.3-1.6-1.4-1.4-2.5c0.1-0.8,0.8-1.4,1.5-1.7c1.7-0.7,3.6-0.7,5.2-1.4
		C104.6,18.6,104.7,20.3,103.8,21.6z"/>
	<path class="st0" d="M152.9,11.5c-0.1-1.3-0.5-2.6-1.4-3.6c-1.6-1.7-4-2.2-6.3-2.3c-3-0.1-6.1,0-8.6,1.7c-1.7,1.1-2.6,3.2-2.7,5.1
		c2.1,0,4.1,0,6.2,0c0.3-1,0.9-2,2-2.3c1.3-0.4,3-0.3,4,0.7c0.9,0.8,0.5,2.5-0.7,2.8c-3.1,0.8-6.5,0.5-9.4,2.1
		c-1.3,0.7-2.4,2.1-2.7,3.6c-0.3,1.7-0.2,3.7,0.9,5.1c1,1.4,2.7,2.2,4.4,2.4c2.9,0.4,5.9-0.3,8.1-2.3c0.1,0.6,0.2,1.2,0.3,1.8
		c2.2,0.1,4.5,0,6.8,0.1c-0.4-1.1-0.7-2.2-0.7-3.3C152.8,19.2,153,15.3,152.9,11.5z M145.6,21.6c-1.1,1.3-3,1.5-4.5,0.9
		c-1.5-0.5-1.7-2.8-0.4-3.7c1.8-1.2,4-1,5.9-1.8C146.5,18.5,146.5,20.3,145.6,21.6z"/>
	<path class="st0" d="M168.6,12c0-2.1,0-4.2,0-6.1c-1.4-0.2-3-0.2-4.4,0.4c-1.5,0.5-2.6,1.9-3.3,3.3c0-1.2,0-2.3,0-3.4
		c-2.1,0-4.3,0-6.4,0c0,6.8,0,13.5,0,20.2c2.1,0,4.4,0,6.5,0c0-3.4-0.1-6.9,0-10.2c0-2,1.3-3.8,3.2-4.3
		C165.7,11.4,167.2,11.6,168.6,12z"/>
	<path class="st0" d="M170,19c-2.4,0-4.8,0-7.3,0c0,2.4,0,4.9,0,7.4c2.4,0,4.8,0,7.3,0C170,24,170,21.6,170,19z"/>
</g>
</svg>
