<svg id="Actual_Colors" data-name="Actual Colors" xmlns="http://www.w3.org/2000/svg" viewBox="0 0 78 52"><defs><style>.cls-1{fill:#fff;}</style></defs><title>Xbox_Icons_All</title><path class="cls-1" d="M30.44,30.35h3.79V25h4.32L37.1,21.79H34.23V6.17H30.29a47.18,47.18,0,0,1-4.4,7.5,87.81,87.81,0,0,1-6.39,8.09V25H30.44Zm-7-8.57Q25,19.86,26.8,17.4a56.16,56.16,0,0,0,3.63-5.77V21.79Z"/><polygon class="cls-1" points="48.1 17.7 57.78 6.17 52.87 6.17 44.83 16.51 44.14 17.57 44.07 17.57 44.07 6.17 40.06 6.17 40.06 30.35 44.07 30.35 44.07 18.55 44.14 18.55 44.83 19.64 53.14 30.35 58.5 30.35 48.1 17.7"/><path class="cls-1" d="M8.54,41.17a3.76,3.76,0,0,1-.66,2.41,2.48,2.48,0,0,1-2,.81Q3,44.4,3,41V33.78H1v7.3A5.42,5.42,0,0,0,2.19,44.9,4.56,4.56,0,0,0,5.7,46.19q4.88,0,4.87-5.26V33.78h-2Z"/><polygon class="cls-1" points="14.95 33.78 12.93 33.78 12.93 45.98 19.72 45.98 19.72 44.23 14.95 44.23 14.95 33.78"/><polygon class="cls-1" points="18.5 35.52 21.99 35.52 21.99 45.98 24.03 45.98 24.03 35.52 27.54 35.52 27.54 33.78 18.5 33.78 18.5 35.52"/><path class="cls-1" d="M34.92,41.05a1.85,1.85,0,0,0-.77-.57v0a3.54,3.54,0,0,0,2-1.21,3.34,3.34,0,0,0,.71-2.16,3,3,0,0,0-1.06-2.43,4.56,4.56,0,0,0-3-.87H28.87V46h2V41h.94c.72,0,1.28.48,1.68,1.43L35,46H37.4l-1.86-4a3.44,3.44,0,0,0-.61-.94m-2.45-1.72H30.9V35.47h1.62a2.49,2.49,0,0,1,1.62.47,1.62,1.62,0,0,1,.58,1.32,1.92,1.92,0,0,1-.63,1.48,2.27,2.27,0,0,1-1.6.58"/><path class="cls-1" d="M43,33.78,38.38,46h2.21l1.07-3.08h4.88L47.65,46h2.22l-4.63-12.2Zm-.78,7.41,1.67-4.7a4.48,4.48,0,0,0,.18-.88h.05a5,5,0,0,0,.17.88L46,41.19Z"/><polygon class="cls-1" points="62.3 38.91 56.6 38.91 56.6 33.78 54.58 33.78 54.58 45.98 56.6 45.98 56.6 40.7 62.3 40.7 62.3 45.98 64.33 45.98 64.33 33.78 62.3 33.78 62.3 38.91"/><path class="cls-1" d="M70.47,33.78H66.7V46h3.67a7.56,7.56,0,0,0,3.49-.77A5.49,5.49,0,0,0,76.18,43,6.48,6.48,0,0,0,77,39.73a5.76,5.76,0,0,0-1.64-4.43,7,7,0,0,0-4.9-1.51M73.67,43a4.48,4.48,0,0,1-3.32,1.19H68.72V35.52h1.67a4.62,4.62,0,0,1,3.3,1.09,4.09,4.09,0,0,1,1.17,3.14A4.45,4.45,0,0,1,73.67,43"/></svg>