<?xml version="1.0" encoding="utf-8"?>
<!-- Generator: Adobe Illustrator 21.1.0, SVG Export Plug-In . SVG Version: 6.00 Build 0)  -->
<svg version="1.1" id="Layer_1" xmlns="http://www.w3.org/2000/svg" xmlns:xlink="http://www.w3.org/1999/xlink" x="0px" y="0px"
	 viewBox="0 0 225 150" style="enable-background:new 0 0 225 150;" xml:space="preserve">
<style type="text/css">
	.st0{fill:#FFFFFF;}
</style>
<image style="display:none;overflow:visible;enable-background:new    ;" width="96" height="96" xlink:href="../../../../../Users/v-jussch/Desktop/SpatialVolume_3.96 c.png"  transform="matrix(1 0 0 1 123.1547 7.73)">
</image>
<g>
	<g>
		<path class="st0" d="M169.7,141.1l-7.4-7.3c15.5-15.9,24.1-36.8,24.1-58.9c0-22.7-9-44-25.2-60l7.3-7.4
			c18.3,18,28.3,41.9,28.3,67.4C196.7,99.8,187.1,123.3,169.7,141.1z"/>
	</g>
	<g>
		<path class="st0" d="M154.8,126.7l-7.4-7.3c11.7-11.9,18.2-27.7,18.2-44.4c0-17.1-6.7-33.2-19-45.2l7.3-7.4
			C168.1,36.4,176,55.1,176,75C175.9,94.5,168.4,112.8,154.8,126.7z"/>
	</g>
	<g>
		<path class="st0" d="M154.8,126.7l-7.4-7.3c11.7-11.9,18.2-27.7,18.2-44.4c0-17.1-6.7-33.2-19-45.2l7.3-7.4
			C168.1,36.4,176,55.1,176,75C175.9,94.5,168.4,112.8,154.8,126.7z"/>
	</g>
	<g>
		<path class="st0" d="M139.8,112.3l-7.4-7.3c8-8.1,12.3-18.7,12.3-30c0-11.5-4.5-22.3-12.8-30.4l7.3-7.4
			c10.2,10.1,15.9,23.5,15.9,37.8C155.2,89,149.7,102.3,139.8,112.3z"/>
	</g>
	<g>
		<path class="st0" d="M102.1,148.8c-40.7,0-73.8-33.1-73.8-73.8S61.4,1.2,102.1,1.2C114,1.2,125.4,4,136,9.5l-4.8,9.2
			c-9.1-4.7-18.9-7.1-29.1-7.1c-35,0-63.4,28.5-63.4,63.4s28.5,63.4,63.4,63.4c10.6,0,21-2.7,30.3-7.7l5,9.1
			C126.6,145.7,114.4,148.8,102.1,148.8z"/>
	</g>
	<polygon class="st0" points="105.5,32.7 84.9,53.3 60.8,53.3 60.8,94.7 84.9,94.7 105.5,115.4 112.8,115.3 112.8,94.7 112.8,53.3 
		112.8,32.8 	"/>
</g>
</svg>
