<svg id="Actual_Colors" data-name="Actual Colors" xmlns="http://www.w3.org/2000/svg" viewBox="0 0 78 52"><defs><style>.cls-1{fill:#fff;}</style></defs><title>Xbox_Icons_All</title><path class="cls-1" d="M65.89,28.33a3.88,3.88,0,0,0-1.56-1.15v-.07a7.24,7.24,0,0,0,4-2.41,6.6,6.6,0,0,0,1.44-4.3,5.87,5.87,0,0,0-2.14-4.83,9.33,9.33,0,0,0-6-1.73h-8V38.15h4.1V28.29h1.9c1.46,0,2.59,1,3.4,2.84l3,7h4.88l-3.78-7.95a6.91,6.91,0,0,0-1.23-1.88m-5-3.43H57.73V17.22H61a5.12,5.12,0,0,1,3.29.94,3.2,3.2,0,0,1,1.16,2.64,3.81,3.81,0,0,1-1.27,3,4.66,4.66,0,0,1-3.25,1.14"/><polygon class="cls-1" points="22.75 24.07 11.2 24.07 11.2 13.85 7.09 13.85 7.09 38.16 11.2 38.16 11.2 27.63 22.75 27.63 22.75 38.16 26.87 38.16 26.87 13.85 22.75 13.85 22.75 24.07"/><path class="cls-1" d="M38,13.85H30.35V38.15H37.8a15.54,15.54,0,0,0,7.07-1.54,11,11,0,0,0,4.72-4.37,12.79,12.79,0,0,0,1.65-6.54q0-5.82-3.31-8.83t-9.93-3m6.5,18.47a9.16,9.16,0,0,1-6.73,2.37H34.45V17.32h3.38a9.48,9.48,0,0,1,6.69,2.18,8.08,8.08,0,0,1,2.36,6.26,8.79,8.79,0,0,1-2.39,6.55"/></svg>