<?xml version="1.0" encoding="utf-8"?>
<!-- Generator: Adobe Illustrator 19.2.1, SVG Export Plug-In . SVG Version: 6.00 Build 0)  -->
<svg version="1.1" id="Layer_1" xmlns="http://www.w3.org/2000/svg" xmlns:xlink="http://www.w3.org/1999/xlink" x="0px" y="0px"
	 viewBox="0 0 78 52" style="enable-background:new 0 0 78 52;" xml:space="preserve">
<style type="text/css">
	.st0{fill:#FFFFFF;}
</style>
<path class="st0" d="M26,33.8h-3.9v12.4h3.8c1.3,0,2.6-0.3,3.6-0.8c1-0.6,1.8-1.2,2.4-2.3c0.6-0.9,0.9-2.1,0.9-3.3
	c0-2-0.6-3.5-1.7-4.6C29.9,34.4,28.2,33.8,26,33.8 M29.2,43.3c-0.8,0.8-1.9,1.2-3.4,1.2h-1.6v-8.9h1.7c1.4,0,2.6,0.4,3.4,1.1
	c0.8,0.8,1.2,1.8,1.2,3.2C30.5,41.4,30.1,42.5,29.2,43.3 M42.9,33.8h2.2l-4.5,12.4h-2.4l-4.5-12.4h2.3l3.1,9.5
	c0.1,0.3,0.2,0.7,0.3,1.1l0,0c0-0.4,0.1-0.8,0.3-1.1L42.9,33.8z M53.7,41.2c-0.3-0.3-0.6-0.5-0.8-0.6l0,0c0.9-0.2,1.5-0.7,2-1.2
	c0.5-0.6,0.8-1.3,0.8-2.2c0-1-0.4-1.9-1-2.5c-0.8-0.6-1.7-0.9-3-0.9h-4.1v12.4h2.1v-5h0.9c0.8,0,1.3,0.5,1.7,1.4l1.5,3.6h2.5
	l-1.9-4.1C54.2,41.9,54,41.6,53.7,41.2 M51.1,39.5h-1.6v-3.9h1.6c0.8,0,1.2,0.2,1.6,0.5c0.4,0.3,0.6,0.8,0.6,1.3
	c0,0.7-0.2,1.1-0.7,1.5C52.4,39.3,51.8,39.5,51.1,39.5 M30.3,30.3h3.9v-5.4h4.4l-1.4-3.3h-2.9V5.7h-4c-1.1,2.3-2.6,4.8-4.6,7.7
	s-4.2,5.6-6.5,8.3v3.3h11.2V30.3z M23.1,21.6c1-1.3,2.2-2.8,3.4-4.5c1.2-1.7,2.5-3.6,3.7-5.9v10.3H23.1z M44.2,30.3h-4.1V5.7h4.1
	v11.7h0.1l0.7-1l8.2-10.6h5l-9.9,11.8l10.6,12.9h-5.5l-8.5-10.9l-0.7-1.1h-0.1L44.2,30.3L44.2,30.3z"/>
</svg>
